<?xml version="1.0" encoding="utf-8"?>
<!-- Generator: Adobe Illustrator 25.1.0, SVG Export Plug-In . SVG Version: 6.00 Build 0)  -->
<svg version="1.1" id="Layer_1" xmlns="http://www.w3.org/2000/svg" xmlns:xlink="http://www.w3.org/1999/xlink" x="0px" y="0px"
	 viewBox="0 0 172 172" style="enable-background:new 0 0 172 172;" xml:space="preserve">
<style type="text/css">
	.st0{fill-rule:evenodd;clip-rule:evenodd;fill:#02A9FF;}
	.st1{fill-rule:evenodd;clip-rule:evenodd;fill:#FEFEFE;}
	.st2{fill:#02A9FF;}
</style>
<g>
	<path class="st0" d="M-153.6-14.4v-70.1c0-4-2.2-6.2-6.2-6.2h-13.7c-4,0-6.2,2.2-6.2,6.2v33.3c0,0.9,9,5.3,9.3,6.2
		c6.9,26.9,1.5,48.4-5,49.4c10.7,0.5,11.8,5.7,3.9,2.2c1.2-14.4,6-14.3,19.6-0.5c0.1,0.1,2.8,5.7,3,5.7h32.2c4,0,6.2-2.2,6.2-6.2
		V-8.2c0-4-2.2-6.2-6.2-6.2L-153.6-14.4L-153.6-14.4z"/>
	<path class="st1" d="M-210.6-90.8l-36,102.6h28l6.1-17.7h30.5l6,17.7h27.9l-35.9-102.6H-210.6z M-206.2-28.7l8.7-28.4l9.6,28.4
		C-187.9-28.7-206.2-28.7-206.2-28.7z"/>
</g>
<path class="st0" d="M-253.7,248.4v-70.1c0-4-2.2-6.2-6.2-6.2h-13.7c-4,0-6.2,2.2-6.2,6.2v33.3c0,0.9,9,5.3,9.3,6.2
	c6.9,26.9,1.5,48.4-5,49.4c10.7,0.5,11.8,5.7,3.9,2.2c1.2-14.4,6-14.3,19.6-0.5c0.1,0.1,2.8,5.7,3,5.7h32.2c4,0,6.2-2.2,6.2-6.2
	v-13.7c0-4-2.2-6.2-6.2-6.2H-253.7L-253.7,248.4z"/>
<path class="st1" d="M46.9,34.8l-36,102.6h28l6.1-17.7h30.5l6,17.7h20.5c3.6,0,6.1-3.6,5-7L73.3,34.8H46.9z M51.3,96.9L60,68.5
	l9.6,28.4C69.6,96.9,51.3,96.9,51.3,96.9z"/>
<g>
	<path class="st2" d="M86.7,34.8h17.2c2.9,0,5.3,2.4,5.3,5.3v34.3h24.1V40.1c0-2.9,2.4-5.3,5.3-5.3h17.2c2.9,0,5.3,2.4,5.3,5.3V132
		c0,2.9-2.4,5.3-5.3,5.3h-17.2c-2.9,0-5.3-2.4-5.3-5.3V95.7h-24.1V132c0,3-2.4,5.3-5.3,5.3H81.4V40.1C81.4,37.2,83.7,34.8,86.7,34.8
		z"/>
</g>
</svg>
